<?xml version="1.0" encoding="utf-8"?>
<!-- Generator: Adobe Illustrator 16.0.0, SVG Export Plug-In . SVG Version: 6.00 Build 0)  -->
<!DOCTYPE svg PUBLIC "-//W3C//DTD SVG 1.1//EN" "http://www.w3.org/Graphics/SVG/1.1/DTD/svg11.dtd">
<svg version="1.1" id="HackerRank" xmlns="http://www.w3.org/2000/svg" xmlns:xlink="http://www.w3.org/1999/xlink" x="0px" y="0px"
	 width="1189px" height="887px" viewBox="0 0 1189 887" enable-background="new 0 0 1189 887" xml:space="preserve">
<g id="Hexagon">
	<g id="Hexagon_1_">
		<g>
			<linearGradient id="SVGID_1_" gradientUnits="userSpaceOnUse" x1="676.7515" y1="290.1465" x2="676.7515" y2="16.5">
				<stop  offset="0" style="stop-color:#25A559"/>
				<stop  offset="1" style="stop-color:#30CE68"/>
			</linearGradient>
			<path fill="url(#SVGID_1_)" d="M594.487,16.5c-14.651,0-61.362,22.151-111.534,49.901L870.55,290.146
				c-1.113-57.23-5.305-108.562-12.612-121.143c-6.163-10.626-37.215-33.152-76.09-57.697L678.193,51.472
				C639.37,31.112,606.378,16.5,594.487,16.5z"/>
			<linearGradient id="SVGID_2_" gradientUnits="userSpaceOnUse" x1="623.1313" y1="416.1641" x2="623.1313" y2="66.4014">
				<stop  offset="0" style="stop-color:#25A559"/>
				<stop  offset="1" style="stop-color:#30CE68"/>
			</linearGradient>
			<path fill="url(#SVGID_2_)" d="M375.408,131.953l492.351,284.211c2.708-35.907,3.643-82.633,2.791-126.018L482.953,66.401
				C444.942,87.423,404.974,111.636,375.408,131.953z"/>
			<linearGradient id="SVGID_3_" gradientUnits="userSpaceOnUse" x1="594.457" y1="511.7988" x2="594.457" y2="131.9531">
				<stop  offset="0" style="stop-color:#25A559"/>
				<stop  offset="1" style="stop-color:#30CE68"/>
			</linearGradient>
			<path fill="url(#SVGID_3_)" d="M375.408,131.953c-23.216,15.938-40.028,29.451-44.371,37.051
				c-4.447,7.779-7.735,30.065-9.881,59.246l491.18,283.549c23.83-16.282,41.171-30.111,45.603-37.803
				c4.396-7.614,7.659-29.314,9.821-57.832L375.408,131.953z"/>
			<linearGradient id="SVGID_4_" gradientUnits="userSpaceOnUse" x1="565.3306" y1="578.4492" x2="565.3306" y2="228.0391">
				<stop  offset="0" style="stop-color:#25A559"/>
				<stop  offset="1" style="stop-color:#30CE68"/>
			</linearGradient>
			<path fill="url(#SVGID_4_)" d="M812.516,511.679l-491.345-283.64c-2.725,36.841-3.612,84.725-2.649,128.712L702.56,578.449
				C741.149,557.216,782.142,532.444,812.516,511.679z"/>
			<linearGradient id="SVGID_5_" gradientUnits="userSpaceOnUse" x1="510.5405" y1="626.5" x2="510.5405" y2="356.751">
				<stop  offset="0" style="stop-color:#25A559"/>
				<stop  offset="1" style="stop-color:#30CE68"/>
			</linearGradient>
			<path fill="url(#SVGID_5_)" d="M318.522,356.751c1.22,55.576,5.381,104.831,12.515,117.245
				C348.286,504.032,560.028,626.5,594.487,626.5c14.314,0,59.225-21.174,108.073-48.051L318.522,356.751z"/>
		</g>
	</g>
	<g id="H_1_">
		
			<image overflow="visible" opacity="0.1" width="315" height="427" xlink:href="7820E5FF8C9DC0CC.png"  transform="matrix(1 0 0 1 437 111)">
		</image>
		<g>
			<path fill="#FFFFFF" d="M646.273,345.368v105.574h-17.819c-3.621,0-6.551,2.935-6.551,6.545c0,2.37,1.256,4.44,3.138,5.591
				l40.05,38.391c1.197,1.564,3.574,2.753,5.697,2.753c2.168,0,4.086-1.128,5.275-2.753l42.669-38.397
				c1.873-1.151,3.123-3.221,3.123-5.584c0-3.61-2.935-6.545-6.55-6.545h-17.881l-0.153-255.099c0-3.613-2.868-6.547-6.483-6.547
				h-37.928c-3.62,0-6.585,2.934-6.585,6.547v98.478l-103.554-0.014v-102.25h17.821c3.619,0,6.55-2.935,6.55-6.547
				c0-2.37-1.256-4.438-3.137-5.59l-40.05-38.389c-1.198-1.565-3.575-2.755-5.698-2.755c-2.167,0-4.086,1.13-5.274,2.755
				l-42.671,38.396c-1.873,1.15-3.122,3.219-3.122,5.582c0,3.612,2.935,6.547,6.551,6.547h17.881l0.154,255.099
				c0,3.613,2.868,6.547,6.483,6.547h37.928c3.62,0,6.585-2.934,6.585-6.547V345.368H646.273z"/>
		</g>
	</g>
</g>

</svg>
